<svg xmlns="http://www.w3.org/2000/svg" viewBox="0 0 360 180" preserveAspectRatio="none"><g fill="#25384E" stroke="#3a5572" stroke-width="0.6"><polygon points="55,28 95,22 120,30 118,46 96,58 86,74 74,70 70,52 58,46 62,36"></polygon><polygon points="96,76 108,80 116,92 104,92 98,84"></polygon><polygon points="112,96 132,92 140,104 134,124 122,140 112,134 110,116 108,104"></polygon><polygon points="168,40 196,34 214,40 206,52 188,54 176,52 170,46"></polygon><polygon points="176,58 214,56 226,74 220,100 204,122 190,120 180,96 174,76"></polygon><polygon points="216,34 250,24 300,26 322,40 318,60 290,66 262,58 236,60 220,52 214,44"></polygon><polygon points="250,62 262,60 268,76 256,84 250,74"></polygon><polygon points="300,64 318,66 322,78 308,82 300,74"></polygon><polygon points="300,104 326,100 334,116 320,128 302,122 298,112"></polygon></g></svg>